<?xml version="1.0" encoding="UTF-8" standalone="no"?>
<!DOCTYPE svg PUBLIC "-//W3C//DTD SVG 1.1//EN" "http://www.w3.org/Graphics/SVG/1.1/DTD/svg11.dtd">
<svg version="1.1" xmlns="http://www.w3.org/2000/svg" xmlns:xlink="http://www.w3.org/1999/xlink" preserveAspectRatio="xMidYMid meet" viewBox="0 0 120 120" width="120" height="120"><defs><path d="M10 85L10 47.5L21.11 47.5L21.11 72.5L32.22 72.5L32.22 85L10 85ZM32.22 85L32.22 72.5L43.33 72.5L43.33 85L32.22 85ZM21.11 47.5L21.11 35L32.22 35L32.22 47.5L21.11 47.5ZM32.22 47.5L32.22 35L43.33 35L43.33 47.5L32.22 47.5Z" id="a1C6vxyy6R"></path><path d="M65.56 85L54.44 85L54.44 47.5L65.56 47.5L65.56 85ZM98.89 85L98.89 47.5L110 47.5L110 85L98.89 85ZM76.67 85L76.67 47.5L87.78 47.5L87.78 85L76.67 85ZM87.78 47.5L87.78 35L98.89 35L98.89 47.5L87.78 47.5ZM54.44 47.5L54.44 35L76.67 35L76.67 47.5L54.44 47.5ZM76.67 47.5L76.67 35L87.78 35L87.78 47.5L76.67 47.5Z" id="a6M8eloQt"></path></defs><g><g><g><g><use xlink:href="#a1C6vxyy6R" opacity="1" fill="#000000" fill-opacity="1"></use></g><g><use xlink:href="#a6M8eloQt" opacity="1" fill="#000000" fill-opacity="1"></use></g></g></g></g></svg>